<svg width="93" height="93" viewBox="0 0 93 93" fill="none" xmlns="http://www.w3.org/2000/svg">
<g filter="url(#filter0_d)">
<path d="M46.5853 13C52.5461 13 58.373 14.7676 63.3292 18.0792C68.2855 21.3909 72.1484 26.0978 74.4295 31.6049C76.7106 37.1119 77.3074 43.1718 76.1445 49.018C74.9816 54.8643 72.1112 60.2344 67.8963 64.4493C63.6814 68.6643 58.3112 71.5347 52.465 72.6976C46.6187 73.8605 40.5589 73.2636 35.0519 70.9825C29.5448 68.7014 24.8378 64.8385 21.5262 59.8823C18.2145 54.9261 16.447 49.0991 16.447 43.1383C16.447 35.1451 19.6222 27.4793 25.2743 21.8273C30.9263 16.1753 38.5921 13 46.5853 13V13Z" fill="#417FFF"/>
</g>
<path d="M53.2124 25.6057C51.4497 23.843 49.3039 23 46.8514 23C44.399 23 42.2531 23.9197 40.4904 25.6057C38.7277 27.3684 37.8846 29.5143 37.8846 31.9668C37.8846 34.4192 38.8043 36.5651 40.4904 38.3278C42.2531 40.0905 44.399 40.9335 46.8514 40.9335C49.3039 40.9335 51.4497 40.0139 53.2124 38.3278C54.9751 36.5651 55.8182 34.4192 55.8182 31.9668C55.8948 29.4377 54.9751 27.2918 53.2124 25.6057ZM51.6797 36.7184C50.3002 38.0979 48.7674 38.711 46.8514 38.711C44.9354 38.711 43.4026 38.0212 42.0231 36.7184C40.6436 35.3389 40.0305 33.8061 40.0305 31.8901C40.0305 29.9741 40.6436 28.4414 42.0231 27.0619C43.4026 25.6824 44.9354 25.0693 46.8514 25.0693C48.7674 25.0693 50.3002 25.6824 51.6797 27.0619C53.0592 28.4414 53.6723 29.9741 53.6723 31.8901C53.6723 33.8061 52.9825 35.4155 51.6797 36.7184Z" fill="white"/>
<path d="M62.639 51.6626C62.5624 50.9728 62.4858 50.1298 62.3325 49.2868C62.1792 48.4437 61.9493 47.6774 61.7194 46.911C61.4894 46.1446 61.1829 45.3782 60.7231 44.6884C60.3399 43.922 59.8034 43.3089 59.2669 42.7725C58.6538 42.236 57.9641 41.7762 57.121 41.4696C56.278 41.163 55.3583 41.0098 54.4387 41.0098C54.0555 41.0098 53.6723 41.163 52.9825 41.6229C52.5227 41.9294 52.0629 42.236 51.4497 42.6192C50.9899 42.9257 50.3002 43.2323 49.4571 43.4622C48.6907 43.6921 47.8477 43.8454 47.0813 43.8454C46.3149 43.8454 45.4719 43.6921 44.7055 43.4622C43.8625 43.2323 43.2494 42.9257 42.7129 42.6192C42.1764 42.236 41.6399 41.9294 41.1801 41.6229C40.4904 41.163 40.1072 41.0098 39.724 41.0098C38.7277 41.0098 37.808 41.163 37.0416 41.4696C36.1986 41.7762 35.5088 42.236 34.8957 42.7725C34.3592 43.3089 33.8228 43.922 33.4396 44.6884C33.0564 45.3782 32.6732 46.1446 32.4433 46.911C32.2134 47.6774 31.9834 48.4437 31.8302 49.2868C31.6769 50.1298 31.6002 50.8962 31.5236 51.6626C31.447 52.3523 31.447 53.1187 31.447 53.8851C31.447 55.8011 32.0601 57.4105 33.2863 58.5601C34.5125 59.7097 36.1219 60.3228 38.0379 60.3228H56.0481C57.9641 60.3228 59.5735 59.7097 60.7997 58.5601C62.0259 57.4105 62.639 55.8011 62.639 53.8851C62.7157 53.1187 62.639 52.3523 62.639 51.6626ZM59.3436 56.9507C58.5772 57.7171 57.5042 58.1003 56.1247 58.1003H38.1146C36.7351 58.1003 35.6621 57.7171 34.8957 56.9507C34.1293 56.1843 33.7461 55.188 33.7461 53.8085C33.7461 53.1187 33.7461 52.429 33.8228 51.7392C33.8994 51.1261 33.976 50.3597 34.1293 49.5933C34.2826 48.8269 34.4359 48.1372 34.6658 47.5241C34.8957 46.911 35.1256 46.2979 35.4322 45.7614C35.7387 45.2249 36.1219 44.7651 36.5051 44.3819C36.8883 43.9987 37.3482 43.6921 37.8846 43.5389C38.4211 43.3089 38.9576 43.2323 39.6473 43.2323C39.724 43.3089 39.8773 43.3856 40.1072 43.4622C40.567 43.7688 41.1035 44.0753 41.6399 44.4585C42.2531 44.8417 43.0961 45.2249 44.0924 45.5315C45.0887 45.838 46.1616 45.9913 47.158 45.9913C48.1543 45.9913 49.2272 45.838 50.2235 45.5315C51.2198 45.2249 52.0628 44.8417 52.676 44.4585C53.2891 44.0753 53.7489 43.7688 54.2087 43.4622C54.4387 43.3089 54.5919 43.2323 54.6686 43.2323C55.2817 43.2323 55.8948 43.3856 56.4313 43.5389C56.9677 43.7688 57.4276 44.0753 57.8108 44.3819C58.194 44.7651 58.5772 45.2249 58.8837 45.7614C59.1903 46.3745 59.4968 46.9876 59.6501 47.5241C59.88 48.1372 60.0333 48.9036 60.1866 49.5933C60.3399 50.3597 60.4165 51.0495 60.4931 51.7392C60.5698 52.429 60.5698 53.1187 60.5698 53.8085C60.4931 55.188 60.1099 56.2609 59.3436 56.9507Z" fill="white"/>
<defs>
<filter id="filter0_d" x="0.44696" y="0" width="92.2767" height="92.2767" filterUnits="userSpaceOnUse" color-interpolation-filters="sRGB">
<feFlood flood-opacity="0" result="BackgroundImageFix"/>
<feColorMatrix in="SourceAlpha" type="matrix" values="0 0 0 0 0 0 0 0 0 0 0 0 0 0 0 0 0 0 127 0" result="hardAlpha"/>
<feOffset dy="3"/>
<feGaussianBlur stdDeviation="8"/>
<feColorMatrix type="matrix" values="0 0 0 0 0.254902 0 0 0 0 0.498039 0 0 0 0 1 0 0 0 1 0"/>
<feBlend mode="normal" in2="BackgroundImageFix" result="effect1_dropShadow"/>
<feBlend mode="normal" in="SourceGraphic" in2="effect1_dropShadow" result="shape"/>
</filter>
</defs>
</svg>
