<svg width="93" height="93" viewBox="0 0 93 93" fill="none" xmlns="http://www.w3.org/2000/svg">
<g filter="url(#filter0_d)">
<path d="M46.1383 13C52.0991 13 57.9261 14.7676 62.8823 18.0792C67.8385 21.3909 71.7014 26.0978 73.9825 31.6049C76.2636 37.1119 76.8605 43.1718 75.6976 49.018C74.5347 54.8643 71.6643 60.2344 67.4493 64.4493C63.2344 68.6643 57.8643 71.5347 52.018 72.6976C46.1718 73.8605 40.1119 73.2636 34.6049 70.9825C29.0978 68.7014 24.3909 64.8385 21.0792 59.8823C17.7676 54.9261 16 49.0991 16 43.1383C16 35.1451 19.1753 27.4793 24.8273 21.8273C30.4793 16.1753 38.1451 13 46.1383 13V13Z" fill="#417FFF"/>
</g>
<path d="M64.1902 57.6482H63.5771V55.8089C63.5771 55.5023 63.2705 55.1958 62.964 55.1958V35.8827H63.5771C63.8836 35.8827 64.1902 35.5762 64.1902 35.2696V32.8172C64.1902 32.5106 63.8836 32.2041 63.5771 32.2041H55.6832V28.6787H56.9095C57.216 28.6787 57.5226 28.3721 57.5226 28.0656V25.6131C57.5226 25.3066 57.216 25 56.9095 25H36.3702C36.0637 25 35.7571 25.3066 35.7571 25.6131V28.0656C35.7571 28.3721 36.0637 28.6787 36.3702 28.6787H37.5964V32.2807H29.7793C29.4727 32.2807 29.1662 32.5873 29.1662 32.8938V35.3463C29.1662 35.6528 29.4727 35.9594 29.7793 35.9594H30.3924V55.2724C30.0858 55.2724 29.7793 55.579 29.7793 55.8855V57.7249H29.1662C28.8596 57.7249 28.553 58.0314 28.553 58.338V60.7904C28.553 61.097 28.8596 61.4035 29.1662 61.4035H64.1902C64.4967 61.4035 64.8033 61.097 64.8033 60.7904V58.338C64.8033 57.8781 64.4967 57.6482 64.1902 57.6482ZM62.964 33.5069V34.7332H55.6832V33.5069H62.964ZM61.7377 35.8827V55.1958H55.6832V35.8827H61.7377ZM36.9833 27.4524V26.2262H56.2964V27.4524H36.9833ZM46.6398 46.7655C44.3407 46.7655 42.4247 48.6814 42.4247 50.9806V55.1958H38.8227V28.6787H54.5337V55.2724H50.9316V51.0573C50.855 48.6814 49.0157 46.7655 46.6398 46.7655ZM49.7054 50.9806V55.1958H43.6509V50.9806C43.6509 49.2946 45.0304 47.9917 46.6398 47.9917C48.2493 47.9917 49.7054 49.2946 49.7054 50.9806ZM62.3508 56.422V57.6482H30.9288V56.422H62.3508ZM31.542 55.1958V35.8827H37.5964V55.1958H31.542ZM30.3924 33.5069H37.6731V34.7332H30.3924V33.5069ZM63.5771 60.024H29.7793V58.7978H63.5771V60.024Z" fill="white"/>
<path d="M43.0378 31.0542H40.5854C40.2788 31.0542 39.9722 31.3608 39.9722 31.6673V34.1198C39.9722 34.4263 40.2788 34.7329 40.5854 34.7329H43.0378C43.3444 34.7329 43.6509 34.4263 43.6509 34.1198V31.6673C43.6509 31.3608 43.3444 31.0542 43.0378 31.0542ZM42.4247 33.5066H41.1985V32.2804H42.4247V33.5066Z" fill="white"/>
<path d="M47.866 31.0542H45.4136C45.107 31.0542 44.8005 31.3608 44.8005 31.6673V34.1198C44.8005 34.4263 45.107 34.7329 45.4136 34.7329H47.866C48.1726 34.7329 48.4791 34.4263 48.4791 34.1198V31.6673C48.4791 31.3608 48.1726 31.0542 47.866 31.0542ZM47.2529 33.5066H46.0267V32.2804H47.2529V33.5066Z" fill="white"/>
<path d="M43.0378 35.8826H40.5854C40.2788 35.8826 39.9722 36.1891 39.9722 36.4957V38.9481C39.9722 39.2547 40.2788 39.5612 40.5854 39.5612H43.0378C43.3444 39.5612 43.6509 39.2547 43.6509 38.9481V36.4957C43.6509 36.1891 43.3444 35.8826 43.0378 35.8826ZM42.4247 38.335H41.1985V37.1088H42.4247V38.335Z" fill="white"/>
<path d="M47.866 35.8826H45.4136C45.107 35.8826 44.8005 36.1891 44.8005 36.4957V38.9481C44.8005 39.2547 45.107 39.5612 45.4136 39.5612H47.866C48.1726 39.5612 48.4791 39.2547 48.4791 38.9481V36.4957C48.4791 36.1891 48.1726 35.8826 47.866 35.8826ZM47.2529 38.335H46.0267V37.1088H47.2529V38.335Z" fill="white"/>
<path d="M43.0378 40.7109H40.5854C40.2788 40.7109 39.9722 41.0175 39.9722 41.324V43.7765C39.9722 44.0831 40.2788 44.3896 40.5854 44.3896H43.0378C43.3444 44.3896 43.6509 44.0831 43.6509 43.7765V41.324C43.6509 41.0175 43.3444 40.7109 43.0378 40.7109ZM42.4247 43.1634H41.1985V41.9372H42.4247V43.1634Z" fill="white"/>
<path d="M47.866 40.7109H45.4136C45.107 40.7109 44.8005 41.0175 44.8005 41.324V43.7765C44.8005 44.0831 45.107 44.3896 45.4136 44.3896H47.866C48.1726 44.3896 48.4791 44.0831 48.4791 43.7765V41.324C48.4791 41.0175 48.1726 40.7109 47.866 40.7109ZM47.2529 43.1634H46.0267V41.9372H47.2529V43.1634Z" fill="white"/>
<path d="M50.3185 34.7329H52.771C53.0775 34.7329 53.3841 34.4263 53.3841 34.1198V31.6673C53.3841 31.3608 53.0775 31.0542 52.771 31.0542H50.3185C50.012 31.0542 49.7054 31.3608 49.7054 31.6673V34.1198C49.7054 34.4263 49.9353 34.7329 50.3185 34.7329ZM50.855 32.2804H52.0812V33.5066H50.855V32.2804Z" fill="white"/>
<path d="M50.3185 39.5612H52.771C53.0775 39.5612 53.3841 39.2547 53.3841 38.9481V36.4957C53.3841 36.1891 53.0775 35.8826 52.771 35.8826H50.3185C50.012 35.8826 49.7054 36.1891 49.7054 36.4957V38.9481C49.7054 39.2547 49.9353 39.5612 50.3185 39.5612ZM50.855 37.1088H52.0812V38.335H50.855V37.1088Z" fill="white"/>
<path d="M53.3075 43.7765V41.324C53.3075 41.0175 53.0009 40.7109 52.6943 40.7109H50.2419C49.9353 40.7109 49.6288 41.0175 49.6288 41.324V43.7765C49.6288 44.0831 49.9353 44.3896 50.2419 44.3896H52.6943C53.0009 44.3896 53.3075 44.0831 53.3075 43.7765ZM52.0812 43.1634H50.855V41.9372H52.0812V43.1634Z" fill="white"/>
<path d="M57.5226 40.7109H59.975C60.2816 40.7109 60.5882 40.4043 60.5882 40.0978V37.6453C60.5882 37.3388 60.2816 37.0322 59.975 37.0322H57.5226C57.216 37.0322 56.9095 37.3388 56.9095 37.6453V40.0978C56.9095 40.481 57.216 40.7109 57.5226 40.7109ZM58.1357 38.3351H59.3619V39.5613H58.1357V38.3351Z" fill="white"/>
<path d="M57.5226 45.5393H59.975C60.2816 45.5393 60.5882 45.2327 60.5882 44.9262V42.4737C60.5882 42.1672 60.2816 41.8606 59.975 41.8606H57.5226C57.216 41.8606 56.9095 42.1672 56.9095 42.4737V44.9262C56.9095 45.3094 57.216 45.5393 57.5226 45.5393ZM58.1357 43.1635H59.3619V44.3897H58.1357V43.1635Z" fill="white"/>
<path d="M57.5226 50.3674H59.975C60.2816 50.3674 60.5882 50.0608 60.5882 49.7543V47.3018C60.5882 46.9953 60.2816 46.6887 59.975 46.6887H57.5226C57.216 46.6887 56.9095 46.9953 56.9095 47.3018V49.7543C56.9095 50.1375 57.216 50.3674 57.5226 50.3674ZM58.1357 47.9916H59.3619V49.2178H58.1357V47.9916Z" fill="white"/>
<path d="M35.8337 37.1089H33.3813C33.0747 37.1089 32.7682 37.4154 32.7682 37.722V40.1744C32.7682 40.481 33.0747 40.7876 33.3813 40.7876H35.8337C36.1403 40.7876 36.4468 40.481 36.4468 40.1744V37.722C36.3702 37.4154 36.1403 37.1089 35.8337 37.1089ZM35.2206 39.5613H33.9944V38.3351H35.2206V39.5613Z" fill="white"/>
<path d="M35.8337 41.9373H33.3813C33.0747 41.9373 32.7682 42.2438 32.7682 42.5504V45.0028C32.7682 45.3094 33.0747 45.6159 33.3813 45.6159H35.8337C36.1403 45.6159 36.4468 45.3094 36.4468 45.0028V42.5504C36.3702 42.2438 36.1403 41.9373 35.8337 41.9373ZM35.2206 44.3897H33.9944V43.1635H35.2206V44.3897Z" fill="white"/>
<path d="M35.8337 46.7654H33.3813C33.0747 46.7654 32.7682 47.0719 32.7682 47.3785V49.8309C32.7682 50.1375 33.0747 50.4441 33.3813 50.4441H35.8337C36.1403 50.4441 36.4468 50.1375 36.4468 49.8309V47.3785C36.3702 47.0719 36.1403 46.7654 35.8337 46.7654ZM35.2206 49.2178H33.9944V47.9916H35.2206V49.2178Z" fill="white"/>
<defs>
<filter id="filter0_d" x="0" y="0" width="92.2767" height="92.2767" filterUnits="userSpaceOnUse" color-interpolation-filters="sRGB">
<feFlood flood-opacity="0" result="BackgroundImageFix"/>
<feColorMatrix in="SourceAlpha" type="matrix" values="0 0 0 0 0 0 0 0 0 0 0 0 0 0 0 0 0 0 127 0" result="hardAlpha"/>
<feOffset dy="3"/>
<feGaussianBlur stdDeviation="8"/>
<feColorMatrix type="matrix" values="0 0 0 0 0.254902 0 0 0 0 0.498039 0 0 0 0 1 0 0 0 1 0"/>
<feBlend mode="normal" in2="BackgroundImageFix" result="effect1_dropShadow"/>
<feBlend mode="normal" in="SourceGraphic" in2="effect1_dropShadow" result="shape"/>
</filter>
</defs>
</svg>
