<svg width="93" height="93" viewBox="0 0 93 93" fill="none" xmlns="http://www.w3.org/2000/svg">
<g filter="url(#filter0_d)">
<path d="M46.1383 13C52.0991 13 57.9261 14.7676 62.8823 18.0792C67.8385 21.3909 71.7014 26.0978 73.9825 31.6049C76.2636 37.1119 76.8605 43.1718 75.6976 49.018C74.5347 54.8643 71.6643 60.2344 67.4493 64.4493C63.2344 68.6643 57.8643 71.5347 52.018 72.6976C46.1718 73.8605 40.1119 73.2636 34.6049 70.9825C29.0978 68.7014 24.3909 64.8385 21.0792 59.8823C17.7676 54.9261 16 49.0991 16 43.1383C16 35.1451 19.1753 27.4793 24.8273 21.8273C30.4793 16.1753 38.1451 13 46.1383 13V13Z" fill="#417FFF"/>
</g>
<path d="M44.1874 32.8941H45.337V34.0436C45.337 34.6568 45.7968 35.1166 46.4099 35.1166C47.023 35.1166 47.4829 34.6568 47.4829 34.0436V32.8941H48.6324C49.2456 32.8941 49.7054 32.4342 49.7054 31.8211C49.7054 31.208 49.2456 30.7482 48.6324 30.7482H47.4829V29.5986C47.4829 28.9855 47.023 28.5256 46.4099 28.5256C45.7968 28.5256 45.337 28.9855 45.337 29.5986V30.7482H44.1874C43.5743 30.7482 43.1144 31.208 43.1144 31.8211C43.1144 32.4342 43.5743 32.8941 44.1874 32.8941Z" fill="white"/>
<path d="M63.1939 36.3426H61.5844V31.7442C61.5844 31.1311 61.1246 30.6713 60.5115 30.6713H53.7673V26.0729C53.7673 25.4598 53.3074 25 52.6943 25H40.0489C39.4358 25 38.9759 25.4598 38.9759 26.0729V30.6713H32.3083C31.6952 30.6713 31.2354 31.1311 31.2354 31.7442V36.3426H29.626C29.0129 36.3426 28.553 36.8024 28.553 37.4155V41.6307C28.553 42.2438 29.0129 42.7036 29.626 42.7036H30.1625V59.7941C30.1625 60.4072 30.6223 60.8671 31.2354 60.8671H44.1108H48.6325H61.5078C62.1209 60.8671 62.5808 60.4072 62.5808 59.7941V42.627H63.1172C63.7303 42.627 64.1902 42.1671 64.1902 41.554V37.3389C64.1902 36.8024 63.7303 36.3426 63.1939 36.3426ZM59.4386 32.8172V36.3426H53.7673V32.8172H59.4386ZM41.0452 27.2225H51.698V36.4192H41.0452C41.0452 35.9594 41.0452 27.6057 41.0452 27.2225ZM33.3047 32.8172H38.9759V36.3426H33.3047V32.8172ZM30.6223 38.4885H62.1209V40.5577H30.6223V38.4885ZM45.1837 58.6445V50.2909H47.6361V58.6445H45.1837ZM60.5115 58.6445H49.7054V49.2179C49.7054 48.6048 49.2456 48.145 48.6325 48.145H44.1108C43.4976 48.145 43.0378 48.6048 43.0378 49.2179V58.6445H32.3083V42.627H60.5115V58.6445Z" fill="white"/>
<path d="M52.8476 56.5753H57.3693C57.9824 56.5753 58.4422 56.1155 58.4422 55.5024V45.7692C58.4422 45.1561 57.9824 44.6963 57.3693 44.6963H52.8476C52.2345 44.6963 51.7746 45.1561 51.7746 45.7692V55.5024C51.7746 56.1155 52.2345 56.5753 52.8476 56.5753ZM53.9205 46.8422H56.373V54.5061H53.9205V46.8422Z" fill="white"/>
<path d="M35.4506 56.5753H39.9723C40.5854 56.5753 41.0452 56.1155 41.0452 55.5024V45.7692C41.0452 45.1561 40.5854 44.6963 39.9723 44.6963H35.4506C34.8375 44.6963 34.3777 45.1561 34.3777 45.7692V55.5024C34.3777 56.1155 34.8375 56.5753 35.4506 56.5753ZM36.4469 46.8422H38.8994V54.5061H36.4469V46.8422Z" fill="white"/>
<defs>
<filter id="filter0_d" x="0" y="0" width="92.2767" height="92.2767" filterUnits="userSpaceOnUse" color-interpolation-filters="sRGB">
<feFlood flood-opacity="0" result="BackgroundImageFix"/>
<feColorMatrix in="SourceAlpha" type="matrix" values="0 0 0 0 0 0 0 0 0 0 0 0 0 0 0 0 0 0 127 0" result="hardAlpha"/>
<feOffset dy="3"/>
<feGaussianBlur stdDeviation="8"/>
<feColorMatrix type="matrix" values="0 0 0 0 0.254902 0 0 0 0 0.498039 0 0 0 0 1 0 0 0 1 0"/>
<feBlend mode="normal" in2="BackgroundImageFix" result="effect1_dropShadow"/>
<feBlend mode="normal" in="SourceGraphic" in2="effect1_dropShadow" result="shape"/>
</filter>
</defs>
</svg>
