<svg width="93" height="93" viewBox="0 0 93 93" fill="none" xmlns="http://www.w3.org/2000/svg">
<g filter="url(#filter0_d)">
<path d="M46.1383 13C52.0991 13 57.9261 14.7676 62.8823 18.0792C67.8385 21.3909 71.7014 26.0978 73.9825 31.6049C76.2636 37.1119 76.8605 43.1718 75.6976 49.018C74.5347 54.8643 71.6643 60.2344 67.4493 64.4493C63.2344 68.6643 57.8643 71.5347 52.018 72.6976C46.1718 73.8605 40.1119 73.2636 34.6049 70.9825C29.0978 68.7014 24.3909 64.8385 21.0792 59.8823C17.7676 54.9261 16 49.0991 16 43.1383C16 35.1451 19.1753 27.4793 24.8273 21.8273C30.4793 16.1753 38.1451 13 46.1383 13V13Z" fill="#417FFF"/>
</g>
<path d="M64.0944 29.9778L59.0362 24.9197C57.81 23.6934 55.7407 23.6934 54.5145 24.9197C53.2883 26.1459 53.2883 28.2151 54.5145 29.4414L54.7444 29.6713L52.2153 32.2004L50.9891 30.9741C49.7629 29.7479 47.6936 29.7479 46.4674 30.9741C45.4711 31.9705 45.2412 33.4266 45.8543 34.6528L34.8183 45.6122C33.822 46.6085 33.5921 48.0646 34.2052 49.2909L32.8257 50.6704C31.8294 51.6667 31.8294 53.1995 32.8257 54.1958L33.0556 54.4257L28.8404 58.7175C28.4572 59.1007 28.4572 59.7904 28.8404 60.2502C29.2236 60.6334 29.9134 60.6334 30.3732 60.2502L34.665 55.9585L34.8949 56.1884C35.8912 57.1847 37.424 57.1847 38.4203 56.1884L39.7998 54.8089C41.026 55.3453 42.4822 55.1921 43.4785 54.1958L54.4379 43.2364C55.6641 43.7729 57.1202 43.6196 58.1165 42.6233C59.3428 41.3971 59.3428 39.3278 58.1165 38.1016L56.8903 36.8753L59.4194 34.3463L59.6493 34.5762C60.8755 35.8024 62.9448 35.8024 64.171 34.5762C65.3972 33.2733 65.3972 31.2041 64.0944 29.9778ZM36.8875 54.6556C36.7343 54.8089 36.5043 54.8089 36.3511 54.6556L34.3584 52.663C34.2052 52.5097 34.2052 52.2798 34.3584 52.1265L35.5847 50.9003L38.1138 53.4294L36.8875 54.6556ZM41.8691 52.663C41.4859 53.0462 40.7961 53.0462 40.3363 52.663L36.2744 48.6011C35.8912 48.2179 35.8912 47.5282 36.2744 47.0683L37.1941 46.1487L38.4203 47.3749C38.8035 47.7581 39.4933 47.7581 39.9531 47.3749C40.3363 46.9917 40.3363 46.3019 39.9531 45.8421L38.7269 44.6159L40.2596 43.0831L41.4859 44.3093C41.8691 44.6925 42.5588 44.6925 43.0186 44.3093C43.4785 43.9261 43.4018 43.2364 43.0186 42.7766L41.7924 41.5503L43.3252 40.0175L48.9199 45.6888L41.8691 52.663ZM50.4526 44.1561L44.9346 38.638L47.3104 36.2622L52.8284 41.7802L50.4526 44.1561ZM56.5071 41.0905C56.1239 41.4737 55.4342 41.4737 54.9743 41.0905L47.9235 34.0397C47.5403 33.6565 47.5403 32.9668 47.9235 32.5069C48.3067 32.1237 48.9965 32.1237 49.4563 32.5069L56.5071 39.5577C56.9669 39.9409 56.9669 40.6307 56.5071 41.0905ZM55.2809 35.2659L53.7481 33.7332L56.2772 31.2041L57.81 32.7368L55.2809 35.2659ZM62.6382 32.9668C62.255 33.35 61.5653 33.35 61.1055 32.9668L56.0473 27.9086C55.6641 27.5254 55.6641 26.8356 56.0473 26.3758C56.4305 25.9926 57.1202 25.9926 57.5801 26.3758L62.6382 31.434C63.0214 31.8938 63.0214 32.5836 62.6382 32.9668Z" fill="white"/>
<defs>
<filter id="filter0_d" x="0" y="0" width="92.2767" height="92.2767" filterUnits="userSpaceOnUse" color-interpolation-filters="sRGB">
<feFlood flood-opacity="0" result="BackgroundImageFix"/>
<feColorMatrix in="SourceAlpha" type="matrix" values="0 0 0 0 0 0 0 0 0 0 0 0 0 0 0 0 0 0 127 0" result="hardAlpha"/>
<feOffset dy="3"/>
<feGaussianBlur stdDeviation="8"/>
<feColorMatrix type="matrix" values="0 0 0 0 0.254902 0 0 0 0 0.498039 0 0 0 0 1 0 0 0 1 0"/>
<feBlend mode="normal" in2="BackgroundImageFix" result="effect1_dropShadow"/>
<feBlend mode="normal" in="SourceGraphic" in2="effect1_dropShadow" result="shape"/>
</filter>
</defs>
</svg>
