<svg width="93" height="93" viewBox="0 0 93 93" fill="none" xmlns="http://www.w3.org/2000/svg">
<g filter="url(#filter0_d)">
<path d="M46.5854 13C52.5462 13 58.3731 14.7676 63.3293 18.0792C68.2855 21.3909 72.1484 26.0978 74.4295 31.6049C76.7106 37.1119 77.3075 43.1718 76.1446 49.018C74.9817 54.8643 72.1113 60.2344 67.8964 64.4493C63.6814 68.6643 58.3113 71.5347 52.465 72.6976C46.6188 73.8605 40.559 73.2636 35.0519 70.9825C29.5449 68.7014 24.8379 64.8385 21.5262 59.8823C18.2146 54.9261 16.447 49.0991 16.447 43.1383C16.447 35.1451 19.6223 27.4793 25.2743 21.8273C30.9264 16.1753 38.5922 13 46.5854 13V13Z" fill="#417FFF"/>
</g>
<path d="M64.5605 37.5459C65.1736 37.5459 65.6334 37.0861 65.6334 36.473V32.1812C65.6334 31.7214 65.4035 31.3382 64.9437 31.1849L47.7766 24.0575C47.5466 23.9808 47.2401 23.9808 46.9335 24.0575L29.6898 31.1849C29.3066 31.3382 29 31.7214 29 32.1812V36.473C29 37.0861 29.4598 37.5459 30.0729 37.5459H31.9123V49.6549H31.6824C31.0693 49.6549 30.6094 50.1147 30.6094 50.7278V53.9467H30.1496C29.5365 53.9467 29.0766 54.4065 29.0766 55.0196V59.4647C29.0766 60.0778 29.5365 60.5376 30.1496 60.5376H64.5605C65.1736 60.5376 65.6334 60.0778 65.6334 59.4647V55.0196C65.6334 54.4065 65.1736 53.9467 64.5605 53.9467H64.1007V50.7278C64.1007 50.1147 63.6408 49.6549 63.0277 49.6549H62.6445V37.5459H64.5605ZM63.4875 56.1692V58.4684H31.2225V56.1692H63.4875ZM37.7368 51.8774V54.0233H32.7553V51.8774H37.7368ZM34.1348 49.7315V37.5459H36.2807V49.6549H34.1348V49.7315ZM38.8098 49.7315H38.4266V37.5459H56.2835V49.6549H55.9003C55.2872 49.6549 54.8273 50.1147 54.8273 50.7278V53.9467H39.8827V50.7278C39.8827 50.1914 39.4229 49.7315 38.8098 49.7315ZM62.0314 51.8774V54.0233H56.9732V51.8774H62.0314ZM58.4294 49.7315V37.5459H60.5753V49.6549H58.4294V49.7315ZM31.2225 35.4V32.871L47.3934 26.2034L63.5642 32.871V35.4H31.2225Z" fill="white"/>
<path d="M53.831 31.9514H40.9556C40.3425 31.9514 39.8827 32.4112 39.8827 33.0244C39.8827 33.6375 40.3425 34.0973 40.9556 34.0973H53.831C54.4441 34.0973 54.9039 33.6375 54.9039 33.0244C54.8273 32.4112 54.3675 31.9514 53.831 31.9514Z" fill="white"/>
<path d="M47.3934 48.9652C46.7803 48.9652 46.3204 48.5054 46.3204 47.8923C46.3204 47.2792 45.8606 46.8194 45.2475 46.8194C44.6344 46.8194 44.1745 47.2792 44.1745 47.8923C44.1745 49.2718 45.0942 50.498 46.3204 50.9579V51.4943C46.3204 52.1074 46.7803 52.5673 47.3934 52.5673C48.0065 52.5673 48.4663 52.1074 48.4663 51.4943V50.9579C49.6925 50.498 50.6122 49.3484 50.6122 47.8923C50.6122 46.1296 49.1561 44.6735 47.3934 44.6735C46.7803 44.6735 46.3204 44.2136 46.3204 43.6005C46.3204 42.9874 46.7803 42.5276 47.3934 42.5276C48.0065 42.5276 48.4663 42.9874 48.4663 43.6005C48.4663 44.2136 48.9261 44.6735 49.5393 44.6735C50.1524 44.6735 50.6122 44.2136 50.6122 43.6005C50.6122 42.221 49.6925 40.9948 48.4663 40.535V39.9985C48.4663 39.3854 48.0065 38.9255 47.3934 38.9255C46.7803 38.9255 46.3204 39.3854 46.3204 39.9985V40.535C45.0942 40.9948 44.1745 42.1444 44.1745 43.6005C44.1745 45.3632 45.6307 46.8194 47.3934 46.8194C48.0065 46.8194 48.4663 47.2792 48.4663 47.8923C48.4663 48.5054 47.9298 48.9652 47.3934 48.9652Z" fill="white"/>
<defs>
<filter id="filter0_d" x="0.447021" y="0" width="92.2767" height="92.2767" filterUnits="userSpaceOnUse" color-interpolation-filters="sRGB">
<feFlood flood-opacity="0" result="BackgroundImageFix"/>
<feColorMatrix in="SourceAlpha" type="matrix" values="0 0 0 0 0 0 0 0 0 0 0 0 0 0 0 0 0 0 127 0" result="hardAlpha"/>
<feOffset dy="3"/>
<feGaussianBlur stdDeviation="8"/>
<feColorMatrix type="matrix" values="0 0 0 0 0.254902 0 0 0 0 0.498039 0 0 0 0 1 0 0 0 1 0"/>
<feBlend mode="normal" in2="BackgroundImageFix" result="effect1_dropShadow"/>
<feBlend mode="normal" in="SourceGraphic" in2="effect1_dropShadow" result="shape"/>
</filter>
</defs>
</svg>
