<svg xmlns="http://www.w3.org/2000/svg" viewBox="0 0 1085.35 349.91"><defs><style>.cls-1,.cls-2{fill:#fff;}.cls-2{fill-rule:evenodd;}</style></defs><title>NXTFIwhite_1</title><g id="Layer_2" data-name="Layer 2"><g id="Layer_1-2" data-name="Layer 1"><path class="cls-1" d="M718.89,103.42v132H698.71l-72.8-89.39v89.39H601.58v-132h20.18l72.8,89.4v-89.4Z"/><path class="cls-1" d="M816.21,235.44l-25.84-34.89-26,34.89h-26l39.23-51.11L740,134.73h26.21l24.71,33,24.71-33h25.46L803.39,184l39.42,51.49Z"/><path class="cls-1" d="M920.7,230a27.82,27.82,0,0,1-10.09,5.1,45.49,45.49,0,0,1-12.54,1.69q-16.61,0-25.66-8.67t-9-25.27V154.34h-16.6V135.48h16.6v-23h23.58v23h27v18.86h-27v47.91c0,4.9,1.19,8.65,3.58,11.22s5.85,3.87,10.38,3.87a20.7,20.7,0,0,0,13.2-4.15Z"/><path class="cls-1" d="M966.91,124v40.17h63.74V184.9H966.91v50.54H942.39v-132h96.38V124Z"/><path class="cls-1" d="M1059.51,114.08a13.9,13.9,0,0,1,0-20.18,15.12,15.12,0,0,1,10.75-4.06A15.55,15.55,0,0,1,1081,93.71a12.46,12.46,0,0,1,4.34,9.71,14.22,14.22,0,0,1-4.24,10.47,14.69,14.69,0,0,1-10.85,4.24A15.16,15.16,0,0,1,1059.51,114.08Zm-1.13,20.65H1082V235.44h-23.58Z"/><path class="cls-2" d="M400.2,286.79a158.16,158.16,0,0,0,38.14-61.47H456a175,175,0,0,1-335.19,0h17.61A158.2,158.2,0,0,0,400.2,286.79"/><path class="cls-1" d="M288.36,77.07A97.89,97.89,0,1,0,386.25,175,97.88,97.88,0,0,0,288.36,77.07Zm0,168a69.73,69.73,0,1,1,69.73-69.73A69.73,69.73,0,0,1,288.35,245Z"/><path class="cls-1" d="M288.35,118.14a57.18,57.18,0,1,0,57.17,57.17A57.17,57.17,0,0,0,288.35,118.14Zm11,87.27h-22l4.95-17.82a13.23,13.23,0,1,1,12.14.23Zm11.1-31.75a22.14,22.14,0,1,0-41.68,12l-17.51,21.52a48.89,48.89,0,1,1,86-33.49Z"/><path class="cls-1" d="M505.25,116.76a16.2,16.2,0,0,0-13.89,7.83H456a175,175,0,0,0-335.19,0H85.37a16.23,16.23,0,1,0,0,16.79h48.4a158.18,158.18,0,0,1,309.19,0h48.4a16.23,16.23,0,1,0,13.89-24.62ZM71,140.08a7.35,7.35,0,1,1,7.34-7.34A7.35,7.35,0,0,1,71,140.08Zm434.52,0a7.35,7.35,0,1,1,7.35-7.34A7.35,7.35,0,0,1,505.53,140.08Z"/><path class="cls-1" d="M560.5,150.33a16.23,16.23,0,0,0-13.9,7.83H418.52a131,131,0,0,0-3.27-16.78,129.45,129.45,0,0,0-5.68-16.79A131.23,131.23,0,0,0,158.2,158.16H30.12a16.24,16.24,0,1,0,0,16.79H173.93a116.32,116.32,0,0,1,1.22-16.79,114.45,114.45,0,0,1,226.43,0A116.32,116.32,0,0,1,402.8,175H546.6a16.23,16.23,0,1,0,13.9-24.62ZM16,174.13a7.35,7.35,0,1,1,7.35-7.35A7.35,7.35,0,0,1,16,174.13Zm544.46,0a7.35,7.35,0,1,1,7.35-7.35A7.35,7.35,0,0,1,560.5,174.13Z"/><path class="cls-1" d="M505.25,183.91a16.22,16.22,0,0,0-13.89,7.83H401.58a114.44,114.44,0,0,1-226.43,0H85.37a16.23,16.23,0,1,0,0,16.79h76.11a131.29,131.29,0,0,0,248.09,16.79,130,130,0,0,0,5.68-16.79h76.11a16.23,16.23,0,1,0,13.89-24.62ZM71,207.15a7.35,7.35,0,1,1,7.34-7.35A7.35,7.35,0,0,1,71,207.15Zm434.52,0a7.35,7.35,0,1,1,7.35-7.35A7.35,7.35,0,0,1,505.53,207.15Z"/></g></g></svg>