<svg xmlns="http://www.w3.org/2000/svg" xmlns:xlink="http://www.w3.org/1999/xlink" viewBox="0 0 768.03 234.39"><defs><style>.cls-1{fill-rule:evenodd;fill:url(#linear-gradient);}.cls-2{fill:none;}.cls-3{fill:url(#linear-gradient-2);}.cls-4{fill:url(#linear-gradient-3);}.cls-5{fill:#209afa;}.cls-6{fill:#203251;}</style><linearGradient id="linear-gradient" x1="80.9" y1="192.66" x2="305.42" y2="192.66" gradientUnits="userSpaceOnUse"><stop offset="0" stop-color="#417fff"/><stop offset="0.51" stop-color="#209afa"/><stop offset="1" stop-color="#00b5f6"/></linearGradient><linearGradient id="linear-gradient-2" x1="127.59" y1="117.19" x2="258.73" y2="117.19" xlink:href="#linear-gradient"/><linearGradient id="linear-gradient-3" x1="127.59" y1="117.43" x2="258.73" y2="117.43" xlink:href="#linear-gradient"/></defs><title>nxtfi</title><g id="Layer_2" data-name="Layer 2"><g id="Layer_1-2" data-name="Layer 1"><path class="cls-1" d="M268.08,192.11a105.87,105.87,0,0,0,25.54-41.18h11.8a117.24,117.24,0,0,1-224.52,0H92.7a106,106,0,0,0,175.38,41.18"/><path class="cls-2" d="M193.15,84.68a32.76,32.76,0,0,0-24.86,54.08L180,124.34a14.83,14.83,0,1,1,27.92-8h17.94A32.75,32.75,0,0,0,193.15,84.68Z"/><path class="cls-2" d="M193.15,70.72a46.71,46.71,0,1,0,46.71,46.71A46.72,46.72,0,0,0,193.15,70.72Zm0,85a38.3,38.3,0,1,1,38.3-38.3A38.3,38.3,0,0,1,193.15,155.73Z"/><path class="cls-3" d="M193.16,51.62a65.57,65.57,0,1,0,65.57,65.57A65.57,65.57,0,0,0,193.16,51.62Zm0,112.52a46.71,46.71,0,1,1,46.71-46.71A46.71,46.71,0,0,1,193.15,164.14Z"/><path class="cls-4" d="M193.15,79.13a38.3,38.3,0,1,0,38.3,38.3A38.3,38.3,0,0,0,193.15,79.13Zm7.36,58.46H185.79l3.32-11.93a8.86,8.86,0,1,1,8.13.15Zm7.43-21.26a14.83,14.83,0,1,0-27.92,8l-11.73,14.42a32.75,32.75,0,1,1,57.59-22.43Z"/><path class="cls-5" d="M338.44,78.21a10.85,10.85,0,0,0-9.3,5.25H305.42a117.24,117.24,0,0,0-224.52,0H57.19a10.87,10.87,0,1,0,0,11.24H89.6a106,106,0,0,1,204-11.24,102.93,102.93,0,0,1,3.09,11.24h32.43a10.87,10.87,0,1,0,9.3-16.49ZM47.56,93.84a4.93,4.93,0,1,1,4.93-4.93A4.93,4.93,0,0,1,47.56,93.84Zm291.07,0a4.93,4.93,0,1,1,4.92-4.93A4.93,4.93,0,0,1,338.63,93.84Z"/><path class="cls-5" d="M375.45,100.7a10.87,10.87,0,0,0-9.31,5.25H280.35a88.76,88.76,0,0,0-2.19-11.25A87.95,87.95,0,0,0,112,83.46a85.84,85.84,0,0,0-3.8,11.24A87,87,0,0,0,106,106H20.18a10.87,10.87,0,1,0,0,11.24h96.33a78.57,78.57,0,0,1,.81-11.24A76.66,76.66,0,0,1,269,106a78.57,78.57,0,0,1,.81,11.24h96.33a10.87,10.87,0,1,0,9.31-16.49ZM10.74,116.64a4.92,4.92,0,1,1,4.93-4.92A4.92,4.92,0,0,1,10.74,116.64Zm364.71,0a4.92,4.92,0,1,1,4.92-4.92A4.92,4.92,0,0,1,375.45,116.64Z"/><path class="cls-5" d="M338.44,123.19a10.85,10.85,0,0,0-9.3,5.25H269a76.56,76.56,0,0,1-7,22.49,76.7,76.7,0,0,1-137.7,0,76.56,76.56,0,0,1-7-22.49H57.19a10.87,10.87,0,1,0,0,11.24h51a86,86,0,0,0,3.8,11.25,87.93,87.93,0,0,0,166.19-11.25h51a10.87,10.87,0,1,0,9.3-16.49ZM47.56,138.76a4.93,4.93,0,1,1,4.93-4.92A4.93,4.93,0,0,1,47.56,138.76Zm291.07,0a4.93,4.93,0,1,1,4.92-4.92A4.92,4.92,0,0,1,338.63,138.76Z"/><path class="cls-5" d="M493.8,62.73v96.51H475.46l-48.12-58.59v58.59H405.28V62.73h18.47l48,58.6V62.73Z"/><path class="cls-5" d="M562.32,159.24l-16.27-22.75-16.82,22.75H505.79l28.54-37.36L506.76,85.07h24.12l15.72,21.64,16.13-21.64h22.89l-27.57,36.26,28.67,37.91Z"/><path class="cls-5" d="M645.05,155.66a22.22,22.22,0,0,1-7.8,3.51,39.45,39.45,0,0,1-9.72,1.18q-13.23,0-20.47-6.76t-7.24-19.85V103.26H588.38V86.72h11.44V68.66h21.51V86.72h18.48v16.54H621.33v30.2q0,4.69,2.41,7.24a9,9,0,0,0,6.83,2.55,13.8,13.8,0,0,0,8.68-2.76Z"/><path class="cls-6" d="M681,80.65v25.51H725.7v17.92H681v35.16H658.69V62.73h72.94V80.65Z"/><path class="cls-6" d="M745,71.28a11.66,11.66,0,0,1,0-17.1,13.62,13.62,0,0,1,9.65-3.45A14,14,0,0,1,764.31,54,10.63,10.63,0,0,1,768,62.32a11.72,11.72,0,0,1-3.72,8.89,15.14,15.14,0,0,1-19.3.07ZM743.9,85.07h21.51v74.17H743.9Z"/></g></g></svg>