<svg width="1152" height="706" viewBox="0 0 1152 706" fill="none" xmlns="http://www.w3.org/2000/svg">
<path d="M1157.32 705.987H-4.82335C-21.4858 705.987 -35 692.241 -35 675.293V-92.3054C-35 -109.254 -21.4858 -123 -4.82335 -123H1157.32C1173.99 -123 1187.5 -109.254 1187.5 -92.3054V675.312C1187.5 692.241 1173.99 705.987 1157.32 705.987Z" fill="url(#paint0_linear)"/>
<path d="M1187.5 444.966C1151.37 247.99 1057.08 203.061 923.473 216.105C656.606 242.191 739.476 72.9414 656.606 4.75732C545.862 -86.3501 282.661 117.909 125.731 -123H1187.5V444.966Z" fill="#3B96FE"/>
<path d="M-35 226.082C-4.47782 392.501 75.187 430.478 188.081 419.446C413.561 397.402 343.533 540.409 413.561 598.01C507.143 675 729.533 502.411 862.122 705.968H-35V226.082Z" fill="url(#paint1_linear)"/>
<path d="M1187.5 705.987H-35V590.805C189.156 511.53 291.28 624.682 414.578 633.273C720.664 654.595 677.357 522.855 952.575 590.805C1089.52 624.623 1187.5 571.259 1187.5 571.259V705.987Z" fill="url(#paint2_linear)"/>
<path d="M-35 705.987H1187.5V580.378C963.344 493.937 861.22 617.321 737.922 626.693C431.836 649.929 475.143 506.297 199.925 580.378C62.9781 617.243 -35 576.258 -35 576.258V705.987Z" fill="url(#paint3_linear)"/>
<defs>
<linearGradient id="paint0_linear" x1="-101.731" y1="-160.849" x2="1209.45" y2="684.686" gradientUnits="userSpaceOnUse">
<stop offset="0.0506" stop-color="#2FA3EB"/>
<stop offset="0.1195" stop-color="#2D9EEC"/>
<stop offset="0.6998" stop-color="#2073F1"/>
<stop offset="0.9968" stop-color="#1B63F3"/>
</linearGradient>
<linearGradient id="paint1_linear" x1="232.429" y1="703.751" x2="660.847" y2="160.328" gradientUnits="userSpaceOnUse">
<stop offset="0.0741" stop-color="#4FD4FA" stop-opacity="0.2"/>
<stop offset="1" stop-color="#3DBCFD" stop-opacity="0.8"/>
</linearGradient>
<linearGradient id="paint2_linear" x1="575.126" y1="738.498" x2="577.123" y2="583.431" gradientUnits="userSpaceOnUse">
<stop stop-color="white" stop-opacity="0"/>
<stop offset="0.9903" stop-color="white" stop-opacity="0.2"/>
</linearGradient>
<linearGradient id="paint3_linear" x1="576.55" y1="707.797" x2="574.896" y2="366.311" gradientUnits="userSpaceOnUse">
<stop stop-color="white"/>
<stop offset="0.7762" stop-color="white" stop-opacity="0.4"/>
</linearGradient>
</defs>
</svg>
