<svg width="1152" height="829" viewBox="0 0 1152 829" fill="none" xmlns="http://www.w3.org/2000/svg">
<path d="M1141 -6.10352e-05H-52.9964C-70.1154 -6.10352e-05 -84 13.7461 -84 30.6945V798.293C-84 815.241 -70.1154 828.987 -52.9964 828.987H1141C1158.12 828.987 1172 815.241 1172 798.293V30.675C1172 13.7461 1158.12 -6.10352e-05 1141 -6.10352e-05Z" fill="url(#paint0_linear)"/>
<path d="M1172 218C1132.36 429.901 1028.9 478.234 882.303 464.202C589.489 436.139 680.417 618.213 589.489 691.563C467.979 789.573 179.188 569.838 7 829H1172V218Z" fill="url(#paint1_linear)"/>
<path d="M-84 479.905C-52.6414 313.487 29.2064 275.509 145.194 286.541C376.853 308.586 304.906 165.579 376.853 107.978C472.999 30.9873 701.483 203.576 837.706 0.0194092H-84V479.905Z" fill="url(#paint2_linear)"/>
<path d="M1172 -0.00012207H-84V115.183C146.298 194.457 251.221 81.3053 377.898 72.7139C692.371 51.3918 647.878 183.132 930.638 115.183C1071.34 81.3639 1172 134.728 1172 134.728V-0.00012207Z" fill="url(#paint3_linear)"/>
<path d="M-84 -0.00012207H1172V125.609C941.702 212.05 836.779 88.6665 710.102 79.2941C395.629 56.0584 440.122 199.69 157.362 125.609C16.663 88.7446 -84 129.729 -84 129.729V-0.00012207Z" fill="url(#paint4_linear)"/>
<defs>
<linearGradient id="paint0_linear" x1="-152.559" y1="866.836" x2="1172.92" y2="-11.3442" gradientUnits="userSpaceOnUse">
<stop offset="0.0506" stop-color="#2FA3EB"/>
<stop offset="0.1195" stop-color="#2D9EEC"/>
<stop offset="0.6998" stop-color="#2073F1"/>
<stop offset="0.9968" stop-color="#1B63F3"/>
</linearGradient>
<linearGradient id="paint1_linear" x1="589.5" y1="829" x2="222" y2="563" gradientUnits="userSpaceOnUse">
<stop stop-color="#3886FD"/>
<stop offset="1" stop-color="#3B96FE" stop-opacity="0"/>
</linearGradient>
<linearGradient id="paint2_linear" x1="190.757" y1="2.23636" x2="616.334" y2="556.847" gradientUnits="userSpaceOnUse">
<stop offset="0.0741" stop-color="#4FD4FA" stop-opacity="0.2"/>
<stop offset="1" stop-color="#3DBCFD" stop-opacity="0.8"/>
</linearGradient>
<linearGradient id="paint3_linear" x1="542.845" y1="-32.5106" x2="544.789" y2="122.558" gradientUnits="userSpaceOnUse">
<stop stop-color="white" stop-opacity="0"/>
<stop offset="0.9903" stop-color="white" stop-opacity="0.2"/>
</linearGradient>
<linearGradient id="paint4_linear" x1="544.308" y1="-1.80997" x2="542.698" y2="339.676" gradientUnits="userSpaceOnUse">
<stop stop-color="white"/>
<stop offset="0.7762" stop-color="white" stop-opacity="0.4"/>
</linearGradient>
</defs>
</svg>
